<svg width="30" height="30" viewBox="0 0 30 30" fill="none" xmlns="http://www.w3.org/2000/svg">
<path d="M28.3443 30C29.2586 30 30 29.2586 30 28.3443V1.65582C30 0.74119 29.2586 0 28.3443 0H1.65572C0.741083 0 0 0.74119 0 1.65582V28.3443C0 29.2586 0.741083 30 1.65572 30H28.3443Z" fill="#3B5998"/>
<path d="M20.6995 30V18.3825H24.5991L25.1829 13.8549H20.6995V10.9642C20.6995 9.65335 21.0634 8.76007 22.9433 8.76007L25.3409 8.75895V4.70949C24.9261 4.65442 23.5029 4.53111 21.8472 4.53111C18.3904 4.53111 16.024 6.64104 16.024 10.5159V13.8549H12.1144V18.3825H16.024V30H20.6995Z" fill="white"/>
</svg>
